<svg id="Frame_1000003622_1_" data-name="Frame 1000003622 (1)" xmlns="http://www.w3.org/2000/svg" xmlns:xlink="http://www.w3.org/1999/xlink" width="145.419" height="42.135" viewBox="0 0 145.419 42.135">
  <defs>
    <linearGradient id="linear-gradient" x1="0.5" x2="0.5" y2="1" gradientUnits="objectBoundingBox">
      <stop offset="0" stop-color="#0096ff"/>
      <stop offset="1" stop-color="#005a99"/>
    </linearGradient>
    <linearGradient id="linear-gradient-2" x1="0.5" x2="0.5" y2="1" gradientUnits="objectBoundingBox">
      <stop offset="0" stop-color="#005a99" stop-opacity="0.702"/>
      <stop offset="1" stop-color="#0096ff" stop-opacity="0"/>
    </linearGradient>
    <linearGradient id="linear-gradient-3" x1="-0.022" y1="0.5" x2="1" y2="0.5" xlink:href="#linear-gradient"/>
  </defs>
  <path id="Path_99295" data-name="Path 99295" d="M9.96,0,.461,1.067A.518.518,0,0,0,0,1.64L2.2,21.235a.519.519,0,0,0,.573.458l9.5-1.064a.518.518,0,0,0,.458-.573L10.533.461A.518.518,0,0,0,9.96,0ZM23.868,7.516l-9.5,1.064a.518.518,0,0,0-.458.573L15.1,19.789a.518.518,0,0,0,.573.458l9.5-1.064a.518.518,0,0,0,.458-.573L24.441,7.974A.519.519,0,0,0,23.868,7.516Zm3.158-4.029,9.5-1.064a.519.519,0,0,1,.573.458l1.588,14.178a.518.518,0,0,1-.458.573L28.73,18.7a.518.518,0,0,1-.573-.458L26.569,4.06A.518.518,0,0,1,27.027,3.487Z" transform="translate(0 0)" fill-rule="evenodd" fill="url(#linear-gradient)"/>
  <path id="Path_99296" data-name="Path 99296" d="M60,187.5l-9.5,1.064a.518.518,0,0,0-.458.573l2.194,19.595a.518.518,0,0,0,.573.458l9.5-1.064a.518.518,0,0,0,.458-.573l-2.194-19.595A.519.519,0,0,0,60,187.5Zm-13.029,1.529-9.48,1.062a.518.518,0,0,0-.458.573l1.191,10.636a.518.518,0,0,0,.573.458l9.48-1.062a.518.518,0,0,0,.458-.573L47.54,189.481A.519.519,0,0,0,46.967,189.024Zm-22.429,2.531,9.5-1.064a.519.519,0,0,1,.573.458L36.2,205.127a.519.519,0,0,1-.458.573l-9.5,1.064a.518.518,0,0,1-.573-.458L24.08,192.128A.518.518,0,0,1,24.538,191.555Z" transform="translate(-21.452 -167.053)" fill-rule="evenodd" fill="url(#linear-gradient-2)"/>
  <path id="Union_13" data-name="Union 13" d="M34.917,16.714a10.828,10.828,0,0,1-1.857-.568,10.1,10.1,0,0,1-1.77-.983l1.4-2.469a8.58,8.58,0,0,0,1.224.743,8.361,8.361,0,0,0,1.354.48,5.014,5.014,0,0,0,1.245.175,4.337,4.337,0,0,0,1.136-.153,2.11,2.11,0,0,0,.961-.568A1.477,1.477,0,0,0,39,12.279a1.332,1.332,0,0,0-.328-.874,3.053,3.053,0,0,0-.852-.721,6.6,6.6,0,0,0-1.158-.568q-.743-.284-1.53-.655a8.538,8.538,0,0,1-1.485-.9,4.481,4.481,0,0,1-1.114-1.332,4.263,4.263,0,0,1-.416-1.966,4.648,4.648,0,0,1,.612-2.426A4.426,4.426,0,0,1,34.5,1.223,6.019,6.019,0,0,1,37.123.546a8.973,8.973,0,0,1,3.146.459A10.926,10.926,0,0,1,42.454,2.1l-1.2,2.425a11.907,11.907,0,0,0-1.879-.83A5.373,5.373,0,0,0,37.6,3.365a2.763,2.763,0,0,0-1.617.415,1.421,1.421,0,0,0-.59,1.245,1.455,1.455,0,0,0,.437,1.027,4.73,4.73,0,0,0,1.158.786q.72.349,1.485.633a10.563,10.563,0,0,1,1.377.634A4.746,4.746,0,0,1,41.1,9a3.775,3.775,0,0,1,.874,1.333,5.064,5.064,0,0,1,.328,1.944,4.316,4.316,0,0,1-.634,2.272,4.7,4.7,0,0,1-1.857,1.7,6.5,6.5,0,0,1-3.015.634A10.423,10.423,0,0,1,34.917,16.714Zm55.868,0V3.692H87.027V.634H97.863V3.692h-3.91V16.714Zm-7.379,0-1.24-3.146H76.829l-1.31,3.146H72.394L79.648,0h.174l7.254,16.714ZM83.3,13.568ZM81.116,10.9l-1.545-3.92L77.939,10.9Zm-20.5,5.811V.634h4.72a6.914,6.914,0,0,1,4,1.027A3.4,3.4,0,0,1,70.82,4.676a4.08,4.08,0,0,1-.742,2.491A4.168,4.168,0,0,1,68.9,8.244a5.3,5.3,0,0,1,1.784,1.3,3.521,3.521,0,0,1,.895,2.426A4.754,4.754,0,0,1,71.1,14.2a3.979,3.979,0,0,1-1.267,1.464,5.571,5.571,0,0,1-1.791.808,8.9,8.9,0,0,1-2.076.24Zm3.168-2.949h2.031a4.311,4.311,0,0,0,1.268-.175,1.981,1.981,0,0,0,.9-.59,1.606,1.606,0,0,0,.327-1.027,1.329,1.329,0,0,0-.394-1.049,2.066,2.066,0,0,0-1.027-.5,5.317,5.317,0,0,0-1.288-.153H63.785Zm0-6.555h1.922a1.625,1.625,0,0,0,1.377-.568,2,2,0,0,0,.459-1.289,1.442,1.442,0,0,0-.568-1.245,2.4,2.4,0,0,0-1.485-.415h-1.7Zm-9.183,9.5-1.24-3.146H48.025l-1.31,3.146H43.591L50.844,0h.175l7.254,16.714ZM54.493,13.568ZM52.312,10.9,50.767,6.981,49.134,10.9ZM21.84,16.714v-5L15.919.634h3.91l3.692,7.423L27.127.634h3.911L25.008,11.71v5Zm-11.483,0V10.181H3.168v6.532H0V.634H3.168V7.122h7.188V.634h3.168v16.08Z" transform="translate(47.556 12.623)" fill="url(#linear-gradient-3)"/>
</svg>
