<svg id="angle-square-left_1_" data-name="angle-square-left (1)" xmlns="http://www.w3.org/2000/svg" width="20.805" height="20.805" viewBox="0 0 20.805 20.805">
  <path id="angle-square-left_1_2" data-name="angle-square-left (1)" d="M20.8,16.47V4.334A4.34,4.34,0,0,0,16.47,0H4.334A4.34,4.34,0,0,0,0,4.334V16.47A4.34,4.34,0,0,0,4.334,20.8H16.47A4.34,4.34,0,0,0,20.8,16.47ZM6.935,10.4A2.6,2.6,0,0,1,7.587,8.68c.252-.283.5-.552.674-.728l2.448-2.49a.867.867,0,0,1,1.236,1.214l-2.452,2.5c-.162.163-.382.406-.607.658a.867.867,0,0,0,0,1.147c.224.251.444.494.6.652l2.458,2.5a.867.867,0,0,1-1.236,1.214L8.256,12.849c-.173-.173-.416-.439-.667-.722A2.592,2.592,0,0,1,6.935,10.4Z" fill="#0096ff"/>
</svg>
