<svg id="Component_123_1" data-name="Component 123 – 1" xmlns="http://www.w3.org/2000/svg" width="29.997" height="35.001" viewBox="0 0 29.997 35.001">
  <path id="bell_1_" data-name="bell (1)" d="M27.945,17.075,25.57,8.531a11.65,11.65,0,0,0-22.6.592L1.135,17.391A6.249,6.249,0,0,0,7.235,25H8.628a6.249,6.249,0,0,0,12.249,0h1.047a6.249,6.249,0,0,0,6.022-7.922ZM14.752,27.5a3.75,3.75,0,0,1-3.52-2.5h7.039a3.75,3.75,0,0,1-3.52,2.5Zm10.156-6.481A3.721,3.721,0,0,1,21.923,22.5H7.235a3.75,3.75,0,0,1-3.66-4.563L5.413,9.665A9.15,9.15,0,0,1,23.161,9.2l2.375,8.544a3.721,3.721,0,0,1-.627,3.272Z" transform="translate(-0.986 4.998)" fill="#141433"/>
  <g id="Ellipse_142" data-name="Ellipse 142" transform="translate(14.999)" fill="#0096ff" stroke="#fff" stroke-width="1">
    <circle cx="7.499" cy="7.499" r="7.499" stroke="none"/>
    <circle cx="7.499" cy="7.499" r="6.999" fill="none"/>
  </g>
</svg>
