<svg id="guide-alt" xmlns="http://www.w3.org/2000/svg" width="24" height="24" viewBox="0 0 24 24">
  <path id="guide-alt_1_" data-name="guide-alt (1)" d="M17,10a7,7,0,1,0,7,7A7.008,7.008,0,0,0,17,10Zm0,12a5,5,0,1,1,5-5A5.006,5.006,0,0,1,17,22Zm1-4v2a1,1,0,0,1-2,0V18a1,1,0,0,1,2,0Zm.5-3.5A1.5,1.5,0,1,1,17,13,1.5,1.5,0,0,1,18.5,14.5ZM9,22H4a2,2,0,0,1,0-4H7a1,1,0,0,0,0-2H6V2h9a3,3,0,0,1,3,3V7a1,1,0,0,0,2,0V5a5.006,5.006,0,0,0-5-5H5A5.006,5.006,0,0,0,0,5V20a4,4,0,0,0,4,4H9a1,1,0,0,0,0-2ZM2,5A3,3,0,0,1,4,2.184V16a3.959,3.959,0,0,0-2,.556Z" fill="#141433"/>
</svg>
